<?xml version="1.0" encoding="UTF-8"?>
<svg version="1.1" xmlns="http://www.w3.org/2000/svg" width="200" height="200">
    <path d="M0 0 C3.41030265 1.37907488 5.76419001 4.05822987 8.31689453 6.62304688 C9.1609082 7.42452148 9.1609082 7.42452148 10.02197266 8.2421875 C11.61767578 9.83007812 11.61767578 9.83007812 14.00439453 12.81054688 C13.72495512 16.1307283 12.40286614 17.77319579 10.06298828 20.04492188 C9.4796875 20.61855469 8.89638672 21.1921875 8.29541016 21.78320312 C7.68375 22.36972656 7.07208984 22.95625 6.44189453 23.56054688 C5.82636719 24.16253906 5.21083984 24.76453125 4.57666016 25.38476562 C3.05924641 26.86689068 1.53268857 28.33964357 0.00439453 29.81054688 C-3.92385076 26.53700913 -7.7696253 23.18849302 -11.49560547 19.68554688 C-12.53201172 18.72261719 -12.53201172 18.72261719 -13.58935547 17.74023438 C-14.99560547 15.81054688 -14.99560547 15.81054688 -14.74487305 13.88061523 C-13.48302788 10.39440307 -10.7610223 8.06378937 -8.18310547 5.49804688 C-7.38163086 4.6540332 -7.38163086 4.6540332 -6.56396484 3.79296875 C-2.54878197 -0.24196902 -2.54878197 -0.24196902 0 0 Z " fill="#2F3E4E" transform="translate(143.99560546875,126.189453125)"/>
    <path d="M0 0 C3.41030265 1.37907488 5.76419001 4.05822987 8.31689453 6.62304688 C9.1609082 7.42452148 9.1609082 7.42452148 10.02197266 8.2421875 C11.61767578 9.83007812 11.61767578 9.83007812 14.00439453 12.81054688 C13.72495512 16.1307283 12.40286614 17.77319579 10.06298828 20.04492188 C9.4796875 20.61855469 8.89638672 21.1921875 8.29541016 21.78320312 C7.68375 22.36972656 7.07208984 22.95625 6.44189453 23.56054688 C5.82636719 24.16253906 5.21083984 24.76453125 4.57666016 25.38476562 C3.05924641 26.86689068 1.53268857 28.33964357 0.00439453 29.81054688 C-3.92385076 26.53700913 -7.7696253 23.18849302 -11.49560547 19.68554688 C-12.53201172 18.72261719 -12.53201172 18.72261719 -13.58935547 17.74023438 C-14.99560547 15.81054688 -14.99560547 15.81054688 -14.74487305 13.88061523 C-13.48302788 10.39440307 -10.7610223 8.06378937 -8.18310547 5.49804688 C-7.38163086 4.6540332 -7.38163086 4.6540332 -6.56396484 3.79296875 C-2.54878197 -0.24196902 -2.54878197 -0.24196902 0 0 Z " fill="#2F3E4E" transform="translate(56.99560546875,126.189453125)"/>
    <path d="M0 0 C3.41030265 1.37907488 5.76419001 4.05822987 8.31689453 6.62304688 C9.1609082 7.42452148 9.1609082 7.42452148 10.02197266 8.2421875 C11.61767578 9.83007812 11.61767578 9.83007812 14.00439453 12.81054688 C13.72495512 16.1307283 12.40286614 17.77319579 10.06298828 20.04492188 C9.4796875 20.61855469 8.89638672 21.1921875 8.29541016 21.78320312 C7.68375 22.36972656 7.07208984 22.95625 6.44189453 23.56054688 C5.82636719 24.16253906 5.21083984 24.76453125 4.57666016 25.38476562 C3.05924641 26.86689068 1.53268857 28.33964357 0.00439453 29.81054688 C-3.92385076 26.53700913 -7.7696253 23.18849302 -11.49560547 19.68554688 C-12.53201172 18.72261719 -12.53201172 18.72261719 -13.58935547 17.74023438 C-14.99560547 15.81054688 -14.99560547 15.81054688 -14.74487305 13.88061523 C-13.48302788 10.39440307 -10.7610223 8.06378937 -8.18310547 5.49804688 C-7.38163086 4.6540332 -7.38163086 4.6540332 -6.56396484 3.79296875 C-2.54878197 -0.24196902 -2.54878197 -0.24196902 0 0 Z " fill="#2E3E4E" transform="translate(185.99560546875,84.189453125)"/>
    <path d="M0 0 C3.41030265 1.37907488 5.76419001 4.05822987 8.31689453 6.62304688 C9.1609082 7.42452148 9.1609082 7.42452148 10.02197266 8.2421875 C11.61767578 9.83007812 11.61767578 9.83007812 14.00439453 12.81054688 C13.72495512 16.1307283 12.40286614 17.77319579 10.06298828 20.04492188 C9.4796875 20.61855469 8.89638672 21.1921875 8.29541016 21.78320312 C7.68375 22.36972656 7.07208984 22.95625 6.44189453 23.56054688 C5.82636719 24.16253906 5.21083984 24.76453125 4.57666016 25.38476562 C3.05924641 26.86689068 1.53268857 28.33964357 0.00439453 29.81054688 C-3.92385076 26.53700913 -7.7696253 23.18849302 -11.49560547 19.68554688 C-12.53201172 18.72261719 -12.53201172 18.72261719 -13.58935547 17.74023438 C-14.99560547 15.81054688 -14.99560547 15.81054688 -14.74487305 13.88061523 C-13.48302788 10.39440307 -10.7610223 8.06378937 -8.18310547 5.49804688 C-7.38163086 4.6540332 -7.38163086 4.6540332 -6.56396484 3.79296875 C-2.54878197 -0.24196902 -2.54878197 -0.24196902 0 0 Z " fill="#2E3E4E" transform="translate(14.99560546875,84.189453125)"/>
    <path d="M0 0 C3.9282453 3.27353775 7.77401983 6.62205385 11.5 10.125 C12.1909375 10.76695313 12.881875 11.40890625 13.59375 12.0703125 C15 14 15 14 14.74926758 15.92993164 C13.48742242 19.41614381 10.76541683 21.74675751 8.1875 24.3125 C7.65318359 24.87517578 7.11886719 25.43785156 6.56835938 26.01757812 C4.98046875 27.61328125 4.98046875 27.61328125 2 30 C-2.588758 29.56436552 -5.21517503 26.29952165 -8.3125 23.1875 C-8.87517578 22.65318359 -9.43785156 22.11886719 -10.01757812 21.56835938 C-11.61328125 19.98046875 -11.61328125 19.98046875 -14 17 C-13.72056059 13.67981857 -12.39847161 12.03735108 -10.05859375 9.765625 C-9.18364258 8.90517578 -9.18364258 8.90517578 -8.29101562 8.02734375 C-7.67935547 7.44082031 -7.06769531 6.85429688 -6.4375 6.25 C-5.82197266 5.64800781 -5.20644531 5.04601562 -4.57226562 4.42578125 C-3.05485187 2.94365619 -1.52829404 1.4709033 0 0 Z " fill="#2E3E4D" transform="translate(164,63)"/>
    <path d="M0 0 C3.9282453 3.27353775 7.77401983 6.62205385 11.5 10.125 C12.1909375 10.76695313 12.881875 11.40890625 13.59375 12.0703125 C15 14 15 14 14.74926758 15.92993164 C13.48742242 19.41614381 10.76541683 21.74675751 8.1875 24.3125 C7.65318359 24.87517578 7.11886719 25.43785156 6.56835938 26.01757812 C4.98046875 27.61328125 4.98046875 27.61328125 2 30 C-2.588758 29.56436552 -5.21517503 26.29952165 -8.3125 23.1875 C-8.87517578 22.65318359 -9.43785156 22.11886719 -10.01757812 21.56835938 C-11.61328125 19.98046875 -11.61328125 19.98046875 -14 17 C-13.72056059 13.67981857 -12.39847161 12.03735108 -10.05859375 9.765625 C-9.18364258 8.90517578 -9.18364258 8.90517578 -8.29101562 8.02734375 C-7.67935547 7.44082031 -7.06769531 6.85429688 -6.4375 6.25 C-5.82197266 5.64800781 -5.20644531 5.04601562 -4.57226562 4.42578125 C-3.05485187 2.94365619 -1.52829404 1.4709033 0 0 Z " fill="#2E3E4D" transform="translate(35,63)"/>
    <path d="M0 0 C3.41030265 1.37907488 5.76419001 4.05822987 8.31689453 6.62304688 C9.1609082 7.42452148 9.1609082 7.42452148 10.02197266 8.2421875 C11.61767578 9.83007812 11.61767578 9.83007812 14.00439453 12.81054688 C13.56876006 17.39930487 10.30391618 20.02572191 7.19189453 23.12304688 C6.65757813 23.68572266 6.12326172 24.24839844 5.57275391 24.828125 C3.98486328 26.42382812 3.98486328 26.42382812 1.00439453 28.81054688 C-3.58436347 28.3749124 -6.2107805 25.11006852 -9.30810547 21.99804688 C-9.87078125 21.46373047 -10.43345703 20.92941406 -11.01318359 20.37890625 C-12.60888672 18.79101562 -12.60888672 18.79101562 -14.99560547 15.81054688 C-14.55997099 11.22178888 -11.29512711 8.59537184 -8.18310547 5.49804688 C-7.38163086 4.6540332 -7.38163086 4.6540332 -6.56396484 3.79296875 C-2.54878197 -0.24196902 -2.54878197 -0.24196902 0 0 Z " fill="#2F3E4D" transform="translate(77.99560546875,147.189453125)"/>
    <path d="M0 0 C3.41030265 1.37907488 5.76419001 4.05822987 8.31689453 6.62304688 C9.1609082 7.42452148 9.1609082 7.42452148 10.02197266 8.2421875 C11.61767578 9.83007812 11.61767578 9.83007812 14.00439453 12.81054688 C13.56876006 17.39930487 10.30391618 20.02572191 7.19189453 23.12304688 C6.65757812 23.68572266 6.12326172 24.24839844 5.57275391 24.828125 C3.98486328 26.42382812 3.98486328 26.42382812 1.00439453 28.81054688 C-3.58436347 28.3749124 -6.2107805 25.11006852 -9.30810547 21.99804688 C-9.87078125 21.46373047 -10.43345703 20.92941406 -11.01318359 20.37890625 C-12.60888672 18.79101562 -12.60888672 18.79101562 -14.99560547 15.81054688 C-14.55997099 11.22178888 -11.29512711 8.59537184 -8.18310547 5.49804688 C-7.38163086 4.6540332 -7.38163086 4.6540332 -6.56396484 3.79296875 C-2.54878197 -0.24196902 -2.54878197 -0.24196902 0 0 Z " fill="#2E3E4D" transform="translate(143.99560546875,43.189453125)"/>
    <path d="M0 0 C3.41030265 1.37907488 5.76419001 4.05822987 8.31689453 6.62304688 C9.1609082 7.42452148 9.1609082 7.42452148 10.02197266 8.2421875 C11.61767578 9.83007812 11.61767578 9.83007812 14.00439453 12.81054688 C13.56876006 17.39930487 10.30391618 20.02572191 7.19189453 23.12304688 C6.65757813 23.68572266 6.12326172 24.24839844 5.57275391 24.828125 C3.98486328 26.42382812 3.98486328 26.42382812 1.00439453 28.81054688 C-3.58436347 28.3749124 -6.2107805 25.11006852 -9.30810547 21.99804688 C-9.87078125 21.46373047 -10.43345703 20.92941406 -11.01318359 20.37890625 C-12.60888672 18.79101562 -12.60888672 18.79101562 -14.99560547 15.81054688 C-14.55997099 11.22178888 -11.29512711 8.59537184 -8.18310547 5.49804688 C-7.38163086 4.6540332 -7.38163086 4.6540332 -6.56396484 3.79296875 C-2.54878197 -0.24196902 -2.54878197 -0.24196902 0 0 Z " fill="#2E3E4D" transform="translate(56.99560546875,43.189453125)"/>
    <path d="M0 0 C4.32504836 1.65863505 7.09418825 4.871041 10.25 8.125 C10.80429688 8.68832031 11.35859375 9.25164062 11.9296875 9.83203125 C13.29104485 11.21686028 14.64614859 12.60783204 16 14 C14.34136495 18.32504836 11.128959 21.09418825 7.875 24.25 C7.31167969 24.80429688 6.74835938 25.35859375 6.16796875 25.9296875 C4.78313972 27.29104485 3.39216796 28.64614859 2 30 C-3.66129431 25.30233025 -8.85228904 20.25276628 -14 15 C-9.59156563 9.70987876 -4.92440206 4.81191572 0 0 Z " fill="#2F3E4E" transform="translate(98,126)"/>
    <path d="M0 0 C4.32504836 1.65863505 7.09418825 4.871041 10.25 8.125 C10.80429688 8.68832031 11.35859375 9.25164062 11.9296875 9.83203125 C13.29104485 11.21686028 14.64614859 12.60783204 16 14 C14.37938967 17.99432781 11.60660827 20.79558321 8.625 23.8125 C7.90183594 24.5849707 7.90183594 24.5849707 7.1640625 25.37304688 C5.7265625 26.83203125 5.7265625 26.83203125 3 29 C-0.31859465 28.69539072 -1.95966768 27.40154229 -4.234375 25.05859375 C-4.80800781 24.47529297 -5.38164063 23.89199219 -5.97265625 23.29101562 C-6.55917969 22.67935547 -7.14570312 22.06769531 -7.75 21.4375 C-8.35199219 20.82197266 -8.95398438 20.20644531 -9.57421875 19.57226562 C-11.05634381 18.05485187 -12.5290967 16.52829404 -14 15 C-9.59156563 9.70987876 -4.92440206 4.81191572 0 0 Z " fill="#2F3F4E" transform="translate(119,147)"/>
    <path d="M0 0 C5.29012124 4.40843437 10.18808428 9.07559794 15 14 C13.34136495 18.32504836 10.128959 21.09418825 6.875 24.25 C6.31167969 24.80429688 5.74835938 25.35859375 5.16796875 25.9296875 C3.78313972 27.29104485 2.39216796 28.64614859 1 30 C-2.9282453 26.72646225 -6.77401983 23.37794615 -10.5 19.875 C-11.53640625 18.91207031 -11.53640625 18.91207031 -12.59375 17.9296875 C-14 16 -14 16 -14.0234375 14.078125 C-12.55877344 11.10407432 -10.49750512 9.17873686 -8.125 6.875 C-6.79855469 5.57175781 -6.79855469 5.57175781 -5.4453125 4.2421875 C-3 2 -3 2 0 0 Z " fill="#2D3D4B" transform="translate(164,105)"/>
    <path d="M0 0 C4.00586874 2.55817452 7.51290467 5.17227343 10.9375 8.5 C11.73027344 9.2528125 12.52304687 10.005625 13.33984375 10.78125 C15 13 15 13 14.78759766 14.93652344 C13.88575398 17.29932033 12.86703812 18.47860377 11.05859375 20.234375 C10.47529297 20.80800781 9.89199219 21.38164063 9.29101562 21.97265625 C8.67935547 22.55917969 8.06769531 23.14570313 7.4375 23.75 C6.82197266 24.35199219 6.20644531 24.95398438 5.57226562 25.57421875 C4.05485187 27.05634381 2.52829404 28.5290967 1 30 C-4.29012124 25.59156563 -9.18808428 20.92440206 -14 16 C-12.34136495 11.67495164 -9.128959 8.90581175 -5.875 5.75 C-5.31167969 5.19570312 -4.74835937 4.64140625 -4.16796875 4.0703125 C-2.78313972 2.70895515 -1.39216796 1.35385141 0 0 Z " fill="#2D3D4B" transform="translate(35,105)"/>
</svg>
